<svg xmlns="http://www.w3.org/2000/svg" width="188.028" height="188.028" viewBox="0 0 188.028 188.028">
  <g id="how-they-work-before" transform="translate(-236.836 -192.933)">
    <g id="Group_41" data-name="Group 41">
      <path id="Path_78" data-name="Path 78" d="M324.373,377.61a1.963,1.963,0,1,1,0,2.776A1.964,1.964,0,0,1,324.373,377.61Z" fill="#fff"/>
      <path id="Path_79" data-name="Path 79" d="M302.633,355.87a1.962,1.962,0,1,1,0,2.775A1.961,1.961,0,0,1,302.633,355.87Z" fill="#fff"/>
      <circle id="Ellipse_2" data-name="Ellipse 2" cx="1.963" cy="1.963" r="1.963" transform="translate(280.317 333.554)" fill="#fff"/>
      <circle id="Ellipse_3" data-name="Ellipse 3" cx="1.963" cy="1.963" r="1.963" transform="translate(258.576 311.813)" fill="#fff"/>
      <circle id="Ellipse_4" data-name="Ellipse 4" cx="1.963" cy="1.963" r="1.963" transform="translate(236.836 290.072)" fill="#fff"/>
    </g>
    <g id="Group_42" data-name="Group 42">
      <circle id="Ellipse_5" data-name="Ellipse 5" cx="1.963" cy="1.963" r="1.963" transform="translate(343.227 357.608)" fill="#fff"/>
      <circle id="Ellipse_6" data-name="Ellipse 6" cx="1.963" cy="1.963" r="1.963" transform="translate(321.486 335.867)" fill="#fff"/>
      <path id="Path_80" data-name="Path 80" d="M300.32,314.7a1.962,1.962,0,1,1,0,2.775A1.961,1.961,0,0,1,300.32,314.7Z" fill="#fff"/>
      <path id="Path_81" data-name="Path 81" d="M278.579,292.96a1.963,1.963,0,1,1,0,2.776A1.963,1.963,0,0,1,278.579,292.96Z" fill="#fff"/>
      <path id="Path_82" data-name="Path 82" d="M256.838,271.219a1.963,1.963,0,1,1,0,2.776A1.964,1.964,0,0,1,256.838,271.219Z" fill="#fff"/>
    </g>
    <g id="Group_43" data-name="Group 43">
      <circle id="Ellipse_7" data-name="Ellipse 7" cx="1.963" cy="1.963" r="1.963" transform="translate(362.655 338.18)" fill="#fff"/>
      <path id="Path_83" data-name="Path 83" d="M341.489,317.014a1.962,1.962,0,1,1,0,2.775A1.961,1.961,0,0,1,341.489,317.014Z" fill="#fff"/>
      <path id="Path_84" data-name="Path 84" d="M319.748,295.273a1.962,1.962,0,1,1,0,2.775A1.961,1.961,0,0,1,319.748,295.273Z" fill="#fff"/>
      <path id="Path_85" data-name="Path 85" d="M298.007,273.532a1.963,1.963,0,1,1,0,2.776A1.963,1.963,0,0,1,298.007,273.532Z" fill="#fff"/>
      <path id="Path_86" data-name="Path 86" d="M276.266,251.791a1.963,1.963,0,1,1,0,2.776A1.964,1.964,0,0,1,276.266,251.791Z" fill="#fff"/>
    </g>
    <g id="Group_44" data-name="Group 44">
      <path id="Path_87" data-name="Path 87" d="M382.657,319.326a1.963,1.963,0,1,1,0,2.776A1.964,1.964,0,0,1,382.657,319.326Z" fill="#fff"/>
      <path id="Path_88" data-name="Path 88" d="M360.917,297.586a1.962,1.962,0,1,1,0,2.775A1.961,1.961,0,0,1,360.917,297.586Z" fill="#fff"/>
      <circle id="Ellipse_8" data-name="Ellipse 8" cx="1.963" cy="1.963" r="1.963" transform="translate(338.601 275.27)" fill="#fff"/>
      <circle id="Ellipse_9" data-name="Ellipse 9" cx="1.963" cy="1.963" r="1.963" transform="translate(316.86 253.529)" fill="#fff"/>
      <circle id="Ellipse_10" data-name="Ellipse 10" cx="1.963" cy="1.963" r="1.963" transform="translate(295.119 231.789)" fill="#fff"/>
    </g>
    <g id="Group_45" data-name="Group 45">
      <circle id="Ellipse_11" data-name="Ellipse 11" cx="1.963" cy="1.963" r="1.963" transform="translate(401.51 299.324)" fill="#fff"/>
      <circle id="Ellipse_12" data-name="Ellipse 12" cx="1.963" cy="1.963" r="1.963" transform="translate(379.77 277.583)" fill="#fff"/>
      <path id="Path_89" data-name="Path 89" d="M358.6,256.417a1.962,1.962,0,1,1,0,2.775A1.963,1.963,0,0,1,358.6,256.417Z" fill="#fff"/>
      <path id="Path_90" data-name="Path 90" d="M336.863,234.676a1.963,1.963,0,1,1,0,2.776A1.963,1.963,0,0,1,336.863,234.676Z" fill="#fff"/>
      <path id="Path_91" data-name="Path 91" d="M315.122,212.935a1.963,1.963,0,1,1,0,2.776A1.964,1.964,0,0,1,315.122,212.935Z" fill="#fff"/>
    </g>
    <g id="Group_46" data-name="Group 46">
      <circle id="Ellipse_13" data-name="Ellipse 13" cx="1.963" cy="1.963" r="1.963" transform="translate(420.938 279.896)" fill="#fff"/>
      <path id="Path_92" data-name="Path 92" d="M399.772,258.73a1.963,1.963,0,1,1,0,2.775A1.962,1.962,0,0,1,399.772,258.73Z" fill="#fff"/>
      <path id="Path_93" data-name="Path 93" d="M378.032,236.989a1.963,1.963,0,1,1,0,2.776A1.963,1.963,0,0,1,378.032,236.989Z" fill="#fff"/>
      <circle id="Ellipse_14" data-name="Ellipse 14" cx="1.963" cy="1.963" r="1.963" transform="translate(355.716 214.673)" fill="#fff"/>
      <path id="Path_94" data-name="Path 94" d="M334.55,193.507a1.963,1.963,0,1,1,0,2.776A1.963,1.963,0,0,1,334.55,193.507Z" fill="#fff"/>
    </g>
  </g>
</svg>
