<svg xmlns="http://www.w3.org/2000/svg" width="25" height="25" viewBox="0 0 25 25">
  <g id="pdf-icon" transform="translate(-884 -1983)">
    <rect id="Rectangle_125" data-name="Rectangle 125" width="25" height="25" transform="translate(884 1983)" fill="none"/>
    <g id="pdf" transform="translate(880.5 1983)">
      <path id="Path_18744" data-name="Path 18744" d="M20.076,0H7.152C6.792,0,6.5.292,6.5.858V24.494a.671.671,0,0,0,.652.445H25a.671.671,0,0,0,.652-.445V5.78c0-.31-.041-.41-.114-.483L20.353.114A.394.394,0,0,0,20.076,0Z" fill="#e9e9e0"/>
      <path id="Path_18745" data-name="Path 18745" d="M37.5.151V5.428h5.277Z" transform="translate(-17.194 -0.084)" fill="#d9d7ca"/>
      <path id="Path_18746" data-name="Path 18746" d="M18.352,18.672h0a.715.715,0,0,1-.431-.145,1.067,1.067,0,0,1-.5-1c.081-.725.978-1.484,2.665-2.257a29.9,29.9,0,0,0,1.687-4.787c-.444-.967-.876-2.222-.562-2.958a.854.854,0,0,1,.505-.541,2.186,2.186,0,0,1,.452-.077c.224,0,.422.289.562.467s.429.522-.166,3.029a14.231,14.231,0,0,0,2.266,3.368,8.664,8.664,0,0,1,1.5-.159c.7,0,1.12.163,1.292.5a.9.9,0,0,1-.174.962,1.184,1.184,0,0,1-.989.53,2.961,2.961,0,0,1-1.875-1.018,21.339,21.339,0,0,0-3.932,1.257,12.636,12.636,0,0,1-1.061,1.893C19.135,18.374,18.741,18.672,18.352,18.672Zm1.186-2.283c-.952.535-1.34.974-1.368,1.222,0,.041-.016.149.192.308C18.428,17.9,18.815,17.722,19.537,16.389Zm6.073-1.978c.363.279.452.42.689.42a.671.671,0,0,0,.539-.2.705.705,0,0,0,.1-.185c-.055-.029-.127-.088-.523-.088A6.512,6.512,0,0,0,25.61,14.411ZM22.284,11.48a31.749,31.749,0,0,1-1.191,3.369,22.252,22.252,0,0,1,2.893-.9A15.244,15.244,0,0,1,22.284,11.48Zm-.27-3.769a1.068,1.068,0,0,0,.043,1.432C22.479,8.2,22.032,7.705,22.013,7.711Z" transform="translate(-6.056 -3.832)" fill="#cc4b4c"/>
      <path id="Path_18747" data-name="Path 18747" d="M25,46.571H7.152a.652.652,0,0,1-.652-.652V39H25.65v6.919A.652.652,0,0,1,25,46.571Z" transform="translate(0 -21.631)" fill="#cc4b4c"/>
      <g id="Group_887" data-name="Group 887" transform="translate(10.617 19.116)">
        <path id="Path_18748" data-name="Path 18748" d="M16.475,47.411h-.731V42.924h1.291a1.811,1.811,0,0,1,.566.091,1.539,1.539,0,0,1,.5.274,1.43,1.43,0,0,1,.359.441,1.223,1.223,0,0,1,.137.582,1.591,1.591,0,0,1-.116.618,1.292,1.292,0,0,1-.323.466,1.455,1.455,0,0,1-.5.292,1.921,1.921,0,0,1-.645.1h-.542v1.62Zm0-3.933v1.778h.67a.8.8,0,0,0,.265-.046.668.668,0,0,0,.24-.149.729.729,0,0,0,.176-.289,1.369,1.369,0,0,0,.067-.46,1.243,1.243,0,0,0-.03-.253.729.729,0,0,0-.125-.274.738.738,0,0,0-.265-.219.984.984,0,0,0-.451-.088h-.548Z" transform="translate(-15.744 -42.924)" fill="#fff"/>
        <path id="Path_18749" data-name="Path 18749" d="M27.707,45.043a3.3,3.3,0,0,1-.119.947,2.354,2.354,0,0,1-.3.658,1.549,1.549,0,0,1-.411.417,2.062,2.062,0,0,1-.441.228,1.823,1.823,0,0,1-.39.1,2.594,2.594,0,0,1-.262.02h-1.7V42.924h1.352a2.568,2.568,0,0,1,1,.179,2.067,2.067,0,0,1,.713.478,1.961,1.961,0,0,1,.423.679A2.248,2.248,0,0,1,27.707,45.043Zm-2.168,1.833a1.21,1.21,0,0,0,1.072-.475,2.41,2.41,0,0,0,.329-1.376,2.331,2.331,0,0,0-.067-.554,1.185,1.185,0,0,0-.259-.5,1.366,1.366,0,0,0-.521-.359,2.242,2.242,0,0,0-.852-.137h-.426v3.4h.725Z" transform="translate(-20.37 -42.924)" fill="#fff"/>
        <path id="Path_18750" data-name="Path 18750" d="M35.341,43.478v1.413h1.875v.5H35.341v2.021H34.6V42.924H37.4v.554Z" transform="translate(-26.201 -42.924)" fill="#fff"/>
      </g>
    </g>
  </g>
</svg>
